HIERARCHY
ROOT Hips
{
	OFFSET 0.000000 1.471914 24.280096
	CHANNELS 6 Xposition Yposition Zposition Xrotation Yrotation Zrotation
	JOINT Spine
	{
		OFFSET 0.000000 0.900110 1.860670
		CHANNELS 6 Xposition Yposition Zposition Xrotation Yrotation Zrotation
		JOINT Spine1
		{
			OFFSET 0.000000 0.400320 2.270309
			CHANNELS 6 Xposition Yposition Zposition Xrotation Yrotation Zrotation
			JOINT Spine2
			{
				OFFSET 0.000000 0.200920 2.296560
				CHANNELS 6 Xposition Yposition Zposition Xrotation Yrotation Zrotation
				JOINT Spine3
				{
					OFFSET 0.000000 0.000000 2.305330
					CHANNELS 6 Xposition Yposition Zposition Xrotation Yrotation Zrotation
					JOINT Neck
					{
						OFFSET 0.000000 -0.864490 6.051487
						CHANNELS 6 Xposition Yposition Zposition Xrotation Yrotation Zrotation
						JOINT Head
						{
							OFFSET 0.000000 -0.550429 3.121674
							CHANNELS 6 Xposition Yposition Zposition Xrotation Yrotation Zrotation
							End Site
							{
								OFFSET 0.000000 0.000000 3.731750
							}
						}
					}
					JOINT RightShoulder
					{
						OFFSET -0.788280 -1.313800 4.256718
						CHANNELS 6 Xposition Yposition Zposition Xrotation Yrotation Zrotation
						JOINT RightArm
						{
							OFFSET -3.915130 0.000000 0.000000
							CHANNELS 6 Xposition Yposition Zposition Xrotation Yrotation Zrotation
							JOINT RightForeArm
							{
								OFFSET -6.914910 0.000000 0.000000
								CHANNELS 6 Xposition Yposition Zposition Xrotation Yrotation Zrotation
								JOINT RightHand
								{
									OFFSET -6.096219 0.000000 0.000000
									CHANNELS 6 Xposition Yposition Zposition Xrotation Yrotation Zrotation
									JOINT RightHandEnd
									{
										OFFSET -1.749950 0.000000 0.000000
										CHANNELS 6 Xposition Yposition Zposition Xrotation Yrotation Zrotation
										End Site
										{
											OFFSET -1.749950 0.000000 0.000000
										}
									}
									JOINT RightHandThumb1
									{
										OFFSET -0.699980 -1.166630 -0.466648
										CHANNELS 6 Xposition Yposition Zposition Xrotation Yrotation Zrotation
										End Site
										{
											OFFSET -1.690319 -0.452920 0.000000
										}
									}
								}
							}
						}
					}
					JOINT LeftShoulder
					{
						OFFSET 0.788280 -1.313800 4.256718
						CHANNELS 6 Xposition Yposition Zposition Xrotation Yrotation Zrotation
						JOINT LeftArm
						{
							OFFSET 3.915130 0.000000 0.000000
							CHANNELS 6 Xposition Yposition Zposition Xrotation Yrotation Zrotation
							JOINT LeftForeArm
							{
								OFFSET 6.914910 0.000000 0.000000
								CHANNELS 6 Xposition Yposition Zposition Xrotation Yrotation Zrotation
								JOINT LeftHand
								{
									OFFSET 6.096219 0.000000 0.000000
									CHANNELS 6 Xposition Yposition Zposition Xrotation Yrotation Zrotation
									JOINT LeftHandEnd
									{
										OFFSET 1.749950 0.000000 0.000000
										CHANNELS 6 Xposition Yposition Zposition Xrotation Yrotation Zrotation
										End Site
										{
											OFFSET 1.749950 0.000000 0.000000
										}
									}
									JOINT LeftHandThumb1
									{
										OFFSET 0.699980 -1.166630 -0.466648
										CHANNELS 6 Xposition Yposition Zposition Xrotation Yrotation Zrotation
										End Site
										{
											OFFSET 1.690319 -0.452920 0.000000
										}
									}
								}
							}
						}
					}
				}
			}
		}
	}
	JOINT RightUpLeg
	{
		OFFSET -2.338570 -0.252550 -0.551512
		CHANNELS 6 Xposition Yposition Zposition Xrotation Yrotation Zrotation
		JOINT RightLeg
		{
			OFFSET 0.000000 0.000000 -10.744959
			CHANNELS 6 Xposition Yposition Zposition Xrotation Yrotation Zrotation
			JOINT RightFoot
			{
				OFFSET 0.000000 -0.000001 -10.930849
				CHANNELS 6 Xposition Yposition Zposition Xrotation Yrotation Zrotation
				JOINT RightToeBase
				{
					OFFSET 0.000000 -4.087269 -1.487650
					CHANNELS 6 Xposition Yposition Zposition Xrotation Yrotation Zrotation
					End Site
					{
						OFFSET 0.000000 -1.891870 0.000000
					}
				}
			}
		}
	}
	JOINT LeftUpLeg
	{
		OFFSET 2.338570 -0.252550 -0.551512
		CHANNELS 6 Xposition Yposition Zposition Xrotation Yrotation Zrotation
		JOINT LeftLeg
		{
			OFFSET 0.000000 0.000000 -10.744959
			CHANNELS 6 Xposition Yposition Zposition Xrotation Yrotation Zrotation
			JOINT LeftFoot
			{
				OFFSET 0.000000 -0.000001 -10.930849
				CHANNELS 6 Xposition Yposition Zposition Xrotation Yrotation Zrotation
				JOINT LeftToeBase
				{
					OFFSET 0.000000 -4.087269 -1.487650
					CHANNELS 6 Xposition Yposition Zposition Xrotation Yrotation Zrotation
					End Site
					{
						OFFSET 0.000000 -1.891870 0.000000
					}
				}
			}
		}
	}
}
MOTION
Frames: 7
Frame Time: 0.041667
0.000048 26.698639 39.737961 -7.455447 3.734159 -17.312113 -0.000004 0.900091 1.860691 20.662258 -1.163479 -0.373751 -0.000003 0.400309 2.270327 -0.000004 -0.000002 0.000001 0.000016 0.200922 2.296549 0.000001 -0.000001 0.000003 0.000003 -0.000051 2.305355 -0.000031 0.000003 -3.072165 -0.000008 -0.864480 6.051510 7.458501 -6.035634 -178.776636 0.000022 -0.550450 3.121716 -0.000001 0.000001 0.000000 -0.788283 -1.313765 4.256767 -131.070415 58.627161 -49.937214 -3.915112 0.000023 -0.000026 -0.000002 0.000000 -0.000001 -6.914892 -0.000004 0.000007 0.000011 -0.000005 -30.033383 -6.096199 -0.000018 0.000008 0.000065 0.000186 -0.000005 -1.749921 0.000008 0.000008 0.000002 0.000001 -0.000001 -0.700016 -1.166628 -0.466667 0.000003 0.000003 -0.000005 0.788277 -1.313808 4.256734 -128.723699 -56.618522 50.563184 3.915179 -0.000005 0.000007 -0.000001 0.000001 0.000001 6.914917 -0.000018 -0.000016 0.000016 0.000010 21.651529 6.096232 0.000071 -0.000002 0.000106 -0.000192 -0.000042 1.749947 0.000007 0.000009 -0.000000 0.000001 0.000002 0.699961 -1.166600 -0.466667 0.000019 0.000000 -0.000025 -2.338587 -0.252546 -0.551520 17.808549 -3.169422 -0.319888 0.000007 -0.000015 -10.744960 8.860227 -0.279735 -0.641513 -0.000018 0.000015 -10.930853 -0.000007 -0.000002 -0.000003 0.000017 -4.087260 -1.487634 0.000002 0.000002 0.000001 2.338567 -0.252547 -0.551465 18.417783 1.395613 -0.339309 -0.000000 -0.000024 -10.744937 9.309418 2.054673 0.060001 -0.000001 -0.000016 -10.930862 0.000029 -0.000002 -0.000004 -0.000013 -4.087226 -1.487652 0.000008 0.000001 0.000001 
0.000047 26.698629 39.737957 -7.472733 3.641485 -17.228000 -0.000006 0.900097 1.860684 20.681634 -1.222214 -0.376762 -0.000002 0.400307 2.270335 -0.000007 -0.000002 0.000000 0.000015 0.200924 2.296543 0.000001 -0.000001 0.000003 0.000002 -0.000049 2.305344 -0.000029 0.000007 -2.723406 -0.000010 -0.864472 6.051501 8.031237 -5.587613 -179.413019 0.000023 -0.550454 3.121719 0.000001 0.000002 0.000000 -0.788285 -1.313757 4.256763 -129.754388 58.134335 -51.522081 -3.915124 0.000021 -0.000023 -0.000001 -0.000002 0.000000 -6.914896 -0.000011 0.000008 0.000011 -0.000007 -30.105377 -6.096200 -0.000015 0.000008 0.000061 0.000182 -0.000003 -1.749920 0.000009 0.000011 0.000003 -0.000001 0.000000 -0.700013 -1.166629 -0.466660 0.000005 -0.000001 -0.000008 0.788279 -1.313797 4.256731 -126.612419 -56.045923 52.688438 3.915180 -0.000005 0.000004 -0.000002 0.000002 0.000001 6.914918 -0.000017 -0.000011 0.000014 0.000007 21.591230 6.096234 0.000070 -0.000006 0.000106 -0.000192 -0.000040 1.749938 0.000008 0.000009 0.000003 -0.000001 0.000003 0.699957 -1.166597 -0.466670 0.000022 -0.000003 -0.000022 -2.338588 -0.252541 -0.551528 17.558707 -2.946910 -0.317839 0.000006 -0.000014 -10.744955 8.998467 -0.374857 -0.617874 -0.000015 0.000015 -10.930856 -0.000009 -0.000002 -0.000001 0.000016 -4.087259 -1.487636 0.000003 0.000001 0.000001 2.338565 -0.252540 -0.551465 18.463748 1.525105 -0.342455 0.000001 -0.000018 -10.744937 9.414266 1.988115 0.080751 0.000001 -0.000017 -10.930862 0.000031 -0.000002 -0.000005 -0.000012 -4.087223 -1.487650 0.000003 -0.000000 -0.000002 
0.000052 26.698639 39.737961 -7.489986 3.552906 -17.297297 -0.000006 0.900096 1.860693 20.653464 -1.254102 -0.391316 -0.000001 0.400310 2.270325 -0.000007 -0.000002 -0.000001 0.000016 0.200922 2.296541 0.000002 -0.000000 0.000001 0.000002 -0.000051 2.305352 -0.000028 0.000004 -2.555287 -0.000008 -0.864472 6.051498 8.160359 -5.086735 -179.393716 0.000024 -0.550448 3.121716 0.000001 0.000003 0.000000 -0.788284 -1.313757 4.256757 -127.070861 56.461981 -53.925122 -3.915120 0.000020 -0.000023 -0.000000 0.000001 -0.000000 -6.914895 -0.000007 0.000011 0.000012 -0.000006 -30.358746 -6.096195 -0.000017 0.000005 0.000064 0.000183 -0.000004 -1.749920 0.000009 0.000011 0.000003 -0.000002 0.000001 -0.700014 -1.166629 -0.466664 0.000003 -0.000000 -0.000007 0.788278 -1.313795 4.256729 -124.335862 -55.158084 54.754396 3.915174 -0.000007 0.000007 -0.000001 0.000001 0.000001 6.914915 -0.000017 -0.000019 0.000012 0.000005 21.702552 6.096230 0.000067 -0.000002 0.000105 -0.000191 -0.000044 1.749929 0.000009 0.000012 0.000006 -0.000003 0.000003 0.699961 -1.166598 -0.466667 0.000022 -0.000003 -0.000021 -2.338588 -0.252545 -0.551514 17.440627 -2.672103 -0.328410 0.000008 -0.000011 -10.744954 9.015852 -0.426781 -0.582301 -0.000017 0.000016 -10.930857 -0.000007 -0.000002 -0.000002 0.000016 -4.087260 -1.487635 0.000003 0.000001 0.000000 2.338566 -0.252545 -0.551457 18.498522 1.691718 -0.356671 0.000002 -0.000019 -10.744937 9.530382 1.852707 0.102685 0.000002 -0.000012 -10.930866 0.000031 -0.000002 -0.000007 -0.000013 -4.087223 -1.487652 0.000004 0.000001 0.000003 
0.000050 26.698635 39.737968 -7.466003 3.577835 -17.200967 -0.000006 0.900095 1.860686 20.610927 -1.421710 -0.414571 -0.000001 0.400311 2.270329 -0.000004 -0.000002 0.000002 0.000014 0.200926 2.296549 0.000000 -0.000000 0.000001 0.000003 -0.000048 2.305351 -0.000030 0.000002 -2.495845 -0.000009 -0.864473 6.051511 8.292045 -4.958022 -179.410614 0.000022 -0.550455 3.121712 -0.000001 0.000000 -0.000001 -0.788283 -1.313757 4.256770 -125.346375 54.917320 -55.505331 -3.915118 0.000015 -0.000023 0.000000 0.000002 -0.000001 -6.914903 -0.000009 0.000004 0.000012 -0.000004 -30.716314 -6.096198 -0.000015 0.000004 0.000064 0.000182 -0.000001 -1.749917 0.000009 0.000015 0.000001 -0.000001 -0.000004 -0.700010 -1.166630 -0.466664 0.000005 -0.000000 -0.000005 0.788279 -1.313799 4.256741 -122.664242 -54.683263 56.304009 3.915172 -0.000006 0.000004 -0.000004 0.000002 0.000000 6.914915 -0.000015 -0.000015 0.000012 0.000006 21.932267 6.096232 0.000070 -0.000003 0.000106 -0.000192 -0.000040 1.749935 0.000009 0.000012 0.000001 -0.000001 0.000001 0.699956 -1.166596 -0.466662 0.000024 -0.000001 -0.000023 -2.338588 -0.252544 -0.551523 17.375002 -2.550751 -0.347475 0.000008 -0.000013 -10.744957 8.984699 -0.555957 -0.571557 -0.000014 0.000022 -10.930855 -0.000010 -0.000002 -0.000006 0.000014 -4.087258 -1.487636 0.000002 0.000002 0.000001 2.338565 -0.252543 -0.551462 18.426551 1.582178 -0.376861 0.000002 -0.000018 -10.744935 9.658061 1.651052 0.074683 -0.000001 -0.000016 -10.930864 0.000032 -0.000001 -0.000002 -0.000011 -4.087221 -1.487653 0.000001 -0.000001 0.000001 
0.000049 26.698635 39.737968 -7.418980 3.542185 -17.259579 -0.000006 0.900091 1.860691 20.404922 -1.483800 -0.471081 -0.000002 0.400313 2.270329 -0.000005 -0.000001 0.000002 0.000015 0.200922 2.296549 0.000002 -0.000000 0.000002 0.000003 -0.000045 2.305355 -0.000030 0.000002 -2.311286 -0.000008 -0.864477 6.051507 8.194140 -4.687162 -179.626093 0.000021 -0.550450 3.121712 0.000003 0.000002 -0.000001 -0.788282 -1.313759 4.256765 -124.048543 53.887570 -56.481085 -3.915118 0.000020 -0.000027 -0.000001 -0.000000 -0.000001 -6.914896 -0.000004 0.000008 0.000011 -0.000004 -30.424354 -6.096199 -0.000018 0.000015 0.000062 0.000181 -0.000003 -1.749914 0.000011 0.000012 0.000004 -0.000002 0.000000 -0.700009 -1.166627 -0.466667 0.000006 -0.000001 -0.000004 0.788281 -1.313804 4.256737 -120.391933 -53.432642 58.243571 3.915173 -0.000002 0.000007 0.000004 0.000003 0.000001 6.914919 -0.000019 -0.000012 0.000016 0.000006 22.237706 6.096228 0.000068 -0.000007 0.000103 -0.000193 -0.000042 1.749929 0.000006 0.000008 0.000001 -0.000001 0.000004 0.699958 -1.166602 -0.466663 0.000025 -0.000001 -0.000022 -2.338587 -0.252547 -0.551520 17.383613 -2.446476 -0.399422 0.000007 -0.000017 -10.744960 9.044204 -0.633799 -0.584965 -0.000017 0.000020 -10.930857 -0.000009 -0.000002 -0.000003 0.000016 -4.087263 -1.487633 0.000004 0.000002 0.000003 2.338566 -0.252546 -0.551463 18.463080 1.548993 -0.432449 0.000001 -0.000020 -10.744931 9.845630 1.827507 0.042377 0.000001 -0.000014 -10.930865 0.000029 -0.000002 -0.000005 -0.000011 -4.087225 -1.487654 0.000002 0.000001 0.000003 
0.000047 26.698633 39.737968 -7.396310 3.628405 -17.370561 -0.000006 0.900097 1.860698 20.304052 -1.631054 -0.493815 -0.000001 0.400311 2.270327 -0.000006 -0.000002 0.000002 0.000018 0.200924 2.296551 0.000001 -0.000000 -0.000001 0.000003 -0.000050 2.305359 -0.000030 0.000004 -2.219429 -0.000010 -0.864475 6.051508 8.095658 -4.576156 -179.354006 0.000023 -0.550444 3.121712 0.000001 0.000001 -0.000000 -0.788282 -1.313758 4.256766 -123.528056 53.037344 -56.781603 -3.915120 0.000016 -0.000027 -0.000000 0.000000 -0.000002 -6.914901 -0.000008 0.000012 0.000011 -0.000005 -30.788130 -6.096191 -0.000015 0.000012 0.000060 0.000180 -0.000002 -1.749913 0.000010 0.000014 0.000002 -0.000001 -0.000002 -0.700012 -1.166630 -0.466660 0.000006 0.000000 -0.000006 0.788276 -1.313800 4.256732 -118.636739 -52.090803 59.793231 3.915177 -0.000001 0.000007 -0.000003 0.000002 0.000001 6.914914 -0.000018 -0.000019 0.000014 0.000007 22.689455 6.096231 0.000069 -0.000009 0.000103 -0.000191 -0.000043 1.749936 0.000009 0.000009 0.000004 0.000002 -0.000000 0.699959 -1.166598 -0.466666 0.000017 0.000000 -0.000024 -2.338588 -0.252542 -0.551518 17.363065 -2.425216 -0.420390 0.000008 -0.000014 -10.744963 9.018573 -0.524375 -0.590682 -0.000016 0.000014 -10.930856 -0.000007 -0.000001 -0.000004 0.000016 -4.087263 -1.487635 0.000003 0.000001 0.000001 2.338566 -0.252543 -0.551456 18.454223 1.410207 -0.454912 -0.000000 -0.000021 -10.744933 9.809833 1.787753 0.006961 0.000000 -0.000016 -10.930863 0.000032 -0.000002 -0.000003 -0.000011 -4.087222 -1.487653 -0.000002 0.000000 0.000000 
0.000048 26.698633 39.737968 -7.336426 3.524333 -17.020406 -0.000005 0.900096 1.860695 20.154056 -1.689354 -0.569528 -0.000002 0.400313 2.270327 -0.000005 -0.000002 0.000002 0.000015 0.200923 2.296541 0.000001 0.000000 0.000002 0.000003 -0.000046 2.305355 -0.000027 0.000003 -2.224375 -0.000010 -0.864466 6.051499 8.103734 -4.612496 -178.969630 0.000021 -0.550460 3.121719 -0.000001 0.000000 -0.000004 -0.788282 -1.313749 4.256763 -123.562753 53.076259 -56.833929 -3.915115 0.000021 -0.000027 -0.000001 0.000001 -0.000000 -6.914899 -0.000009 0.000012 0.000011 -0.000003 -30.247124 -6.096193 -0.000016 0.000015 0.000064 0.000184 -0.000001 -1.749922 0.000009 0.000017 0.000005 -0.000001 0.000002 -0.700010 -1.166631 -0.466657 0.000005 -0.000000 -0.000007 0.788276 -1.313794 4.256729 -117.072803 -50.652485 61.196972 3.915183 -0.000005 0.000007 -0.000000 0.000002 -0.000002 6.914912 -0.000016 -0.000012 0.000018 0.000009 23.133231 6.096231 0.000069 -0.000001 0.000103 -0.000190 -0.000038 1.749937 0.000008 0.000008 0.000002 -0.000000 0.000003 0.699966 -1.166598 -0.466670 0.000019 -0.000001 -0.000022 -2.338587 -0.252545 -0.551518 17.313529 -2.516605 -0.487773 0.000007 -0.000011 -10.744955 9.047794 -0.432516 -0.641625 -0.000016 0.000020 -10.930854 -0.000010 -0.000003 -0.000005 0.000015 -4.087255 -1.487635 -0.000002 0.000003 0.000003 2.338566 -0.252543 -0.551459 18.363933 1.255269 -0.524940 0.000001 -0.000021 -10.744937 9.856179 1.884383 -0.056900 0.000001 -0.000017 -10.930861 0.000032 -0.000002 -0.000004 -0.000014 -4.087216 -1.487649 -0.000000 0.000000 0.000000 
